
<global>
amp_veltrack=0
ampeg_release=0.85
xf_cccurve=gain
xfin_hicc1=127
xfout_hicc1=127
xfout_locc1=127
</global>

<group>
group_label=Group_0-42
lpc_hicc1=42
lpc_locc1=0

<region>
hikey=B3
hivel=127
lokey=A#3
lovel=0
lpc=PORTQrxwQcPk45FDpUNpww8R9kLYKJHCQ9okQmVUJT/+z0/BTjV+wM/3X0E0vTbBsUvRQFR8Ib/0QjW/afeFwARfe0Dp3DZAs+STwOs9pj/WnwC/ai+4PzxVYb/s6is+
lpc_rms=-44.81
offset=126
pitch_keycenter=A#3
sample=Trumpet_Marcato_Quarter_PP_A#3.opus
tune=+9
</region>

<region>
hikey=B4
hivel=127
lokey=A#4
lovel=0
lpc=MS2UQrTAlMPO6gREMgcNxEgq0EPOeHTDIxXkQpCw8sEe2q5ACIydwWlbx0EDFmDBcQiLQUvT8cGEfqpB5ZVGQVTJNMLpUUtCgVnCwbsaOcEO0NZBQG1owcYbhb+EwTlA
lpc_rms=-35.42
pitch_keycenter=A#4
sample=Trumpet_Marcato_Quarter_PP_A#4.opus
tune=-18
</region>

<region>
hikey=B5
hivel=127
lokey=A#5
lovel=0
lpc=bpVZQtRtAcMuDDJDc+8ww/lXE0PoXtvCPr6bQm70TMKDSwpCvFvSwUiMpkGESMzAjcIwwf00p0GPd1LB4fDyv6QHcUFfJJ/BEn24QbYGu8FK1q9BbSSWweE7m0ERvIbB
lpc_rms=-35.14
pitch_keycenter=A#5
sample=Trumpet_Marcato_Quarter_PP_A#5.opus
tune=-40
</region>

<region>
hikey=C#4
hivel=127
lokey=C4
lovel=0
lpc=SLdqQqNoVMMWs5xD1tFxw0ro9EI7PY/C7BAtQhDMAsHlcou/g7FPwY7KmUHRmFnByWtbQUxnm8GVT4VBtRLTwEA3XT93IRbAY0V3QNUdyL/5HGM/j5oWwJDCnT+cVxs+
lpc_rms=-42.63
offset=261
sample=Trumpet_Marcato_Quarter_PP_C4.opus
tune=+22
</region>

<region>
hikey=C#5
hivel=127
lokey=C5
lovel=0
lpc=rmCUQpXpkMPmMPVD3uHsw9pMmkPmcyvD+2rEQjETUcKVnd9BDjahwclHdEFuyjTBYDBJvzjD70G1G0PCSdAIQq1qA8HsNCe/WOfzwDwFjUH3JLPB/MnOQSQoq8G+1flA
lpc_rms=-36.34
pitch_keycenter=C5
sample=Trumpet_Marcato_Quarter_PP_C5.opus
tune=+2
</region>

<region>
hikey=F6
hivel=127
lokey=C6
lovel=0
lpc=fQjEQnBSYMOVCItDVh6Dwzp7U0Oc0RPDM6m+Qm98QMLmfolBxJSEQGVbAcE+whpBXwjrwC48YkEPTIHBlzNMQXxDBEGeKf/BXr1xQvy7pMI6ms5CUnvIwnNIBEI1hwZB
lpc_rms=-31.10
pitch_keycenter=C6
sample=Trumpet_Marcato_Quarter_PP_C6.opus
tune=-32
</region>

<region>
hikey=D#4
hivel=127
lokey=D4
lovel=0
lpc=5R9nQtqSUMO4NJ1Du+CCwyYhIEMaZNnC4VmGQuuEj8HctzXAF0CVwMIuP0FklB/B2v0BQWUJ0sDDLhpAAZIEP94St77xNng/mM0twLS7IUD94lG/St4+P5LJr7+VXDM/
lpc_rms=-42.48
pitch_keycenter=D4
sample=Trumpet_Marcato_Quarter_PP_D4.opus
tune=+10
</region>

<region>
hikey=D#5
hivel=127
lokey=D5
lovel=0
lpc=PwvDQrCbp8Okp/dDCaLYw6mWlUNgY0fD1oPUQrmeusFgWl3BPbJPwNz2H0IeZCXCKCYMQX4DekGYDbrBM2gWQkUxT8LZW15CGkZjwluZWUIrxXTCrSq0QjCCqsJlNANC
lpc_rms=-36.21
pitch_keycenter=D5
sample=Trumpet_Marcato_Quarter_PP_D5.opus
tune=+3
</region>

<region>
hikey=F4
hivel=127
lokey=E4
lovel=0
lpc=66I7Qr6WJsNfD3hDMdhOwy3/AUNYkLnCFVJ1Qry+jsEdwJTAFG5twNOXckHgoSXBNvsEPkVbtD4JB+RAOO4wwUHe7UA4s8y/PAwNwANPFECR6LW+y2FzP72AK8AKCrs/
lpc_rms=-43.48
pitch_keycenter=E4
sample=Trumpet_Marcato_Quarter_PP_E4.opus
tune=+4
</region>

<region>
hikey=F5
hivel=127
lokey=E5
lovel=0
lpc=8Y5YQg3sQcPDhKRD1sqxw7O8kkMf00vDt7jnQqPTS8KaD9JBRfHPwXQRBELpaSXCBPtLQmtsW8Lw6i1C/6x1wVSlVsFHZRZCSjBawkVCdkIB5XvCrS15Qvu5MsKu0IBB
lpc_rms=-35.88
pitch_keycenter=E5
sample=Trumpet_Marcato_Quarter_PP_E5.opus
tune=-15
</region>

<region>
hikey=G3
hivel=127
lokey=F#3
lovel=0
lpc=uFRAQoeDIcN9HVZDi/YMwyvUe0LIdDbC4c75QXdOnsAOHJLANVOXP2OJAz+gSF+/rrVoQLbolMAK+AI/Q8eiP4Sb1D+Pwvo+ZQ7VwAziskASpEY/QqkWwL9YgD5j/ac+
lpc_rms=-48.60
offset=950
pitch_keycenter=F#3
sample=Trumpet_Marcato_Quarter_PP_F#3.opus
tune=+4
</region>

<region>
hikey=G4
hivel=127
lokey=F#4
lovel=0
lpc=NvtdQl1IS8P505xD0/2Fw6hJH0McJMHCVWduQh/hpcErG9m/+hmAPk9gIEHyVj3B0ueJQDRjtT+FDu2/FW5JQKQFmcA8rTtAAoBQv1jRhj/FRFs9igXJv8x0ej+bsES9
lpc_rms=-42.27
offset=597
pitch_keycenter=F#4
sample=Trumpet_Marcato_Quarter_PP_F#4.opus
tune=-11
</region>

<region>
hikey=G5
hivel=127
lokey=F#5
lovel=0
lpc=B2qzQoIllMMckutDDsfkw453nkMkrT/Dh6kMQ0z46MJDhKxCya5HwpR0BEIrDQHCoh8OQv0rvMFHe0xB93dPwR0bjUH8SdTAR40qP/+63cCk8VVBLZ3cPmxSVMGvFj5B
lpc_rms=-32.79
offset=333
pitch_keycenter=F#5
sample=Trumpet_Marcato_Quarter_PP_F#5.opus
tune=-19
</region>

<region>
hikey=A3
hivel=127
lokey=G#3
lovel=0
lpc=sDJfQmEnNsN+b2ZD9AMQw8BygELDXDHCRlbSQSWOocC/8IY/Yu0FwV5MSUG/WAHB9SPhP4YG7T5sC9C/p/1PQNCXYMBhBpBALgO9wHRm8D9Clss/3fljQHW/5cChE05A
lpc_rms=-47.76
pitch_keycenter=G#3
sample=Trumpet_Marcato_Quarter_PP_G#3.opus
tune=-11
</region>

<region>
hikey=A4
hivel=127
lokey=G#4
lovel=0
lpc=RLrdQnz20MMZ4B5ErtD1w65CYUOnmd3CGVGfQihcI8J5tlZBOg6ywMOXM0FCpWPBToj1v2K5hUEVECbB+/aiPvVps0AqtSbBKlfYQLhyIsHm6dRBCUy2wd4VHEAmFExA
lpc_rms=-37.76
pitch_keycenter=G#4
sample=Trumpet_Marcato_Quarter_PP_G#4.opus
tune=-33
</region>

<region>
hikey=A5
hivel=127
lokey=G#5
lovel=0
lpc=K9uZQlL5V8O7WI5DWwNsw0m1H0O54d7C9dWlQg0Wd8K551JCOZs0wlmw50FMrvi/ImiiwY9M4EF+GqHBaOE+QVSELMHPOl5BHcTiwF5OP8EefjFCgx+WwhbBlEKHYAHC
lpc_rms=-35.11
offset=82
pitch_keycenter=G#5
sample=Trumpet_Marcato_Quarter_PP_G#5.opus
tune=-26
</region>
</group>

<group>
group_label=Group_43-86
lpc_hicc1=86
lpc_locc1=43

<region>
hikey=B3
hivel=127
lokey=A#3
lovel=0
lpc=ZAIpQri5HcMgpoBDKxxzw6tOIUP+4cTCC+J4QlpG/cEZXkJBxXQ8wbzLrkEwINLBE+6QQab2ysCa5Es/6lFeP72kO8CES5hA2RB1wKoytT/Agdm/4cd9QBa6YsBVLZc/
lpc_rms=-41.80
pitch_keycenter=A#3
sample=Trumpet_Marcato_Quarter_MF_A#3.opus
tune=+2
</region>

<region>
hikey=B4
hivel=127
lokey=A#4
lovel=0
lpc=YISWQeRZgsIU1tpCoI34wmN56EJ6OMDCUqiDQgj5C8LxRX5BQsXwwFprlED+pvLAejthQQ08icFhfXlBsrlDwVnb8ED0yQHAC9d9vwgpGz/Uiw0/IjL+PqXx4r9cg5k/
lpc_rms=-33.92
pitch_keycenter=A#4
sample=Trumpet_Marcato_Quarter_MF_A#4.opus
tune=-19
</region>

<region>
hikey=B5
hivel=127
lokey=A#5
lovel=0
lpc=QjwvQjygtsJrAvJCapPmwqo2xUKIbYzCpmRBQrF23MEEgaNBVUFWwd/mYkFvkSHB52E4QUMn0cDFPslAj2JEv0z9EUAdFlC/TwIQQVgVgMHRxexBI4YDwts7AkJQgY3B
lpc_rms=-27.26
pitch_keycenter=A#5
sample=Trumpet_Marcato_Quarter_MF_A#5.opus
tune=-36
</region>

<region>
hikey=C#4
hivel=127
lokey=C4
lovel=0
lpc=NocvQtVIKMNOSY9DuIaQw7y9S0NGZPPC8/CSQuB9LML8nbBBcVRNwR1QO0GLpDvB9g46QQsuJsH/oOlAc9NowBQc0L97Y+pA16gBwa7TgUAutTm/hMSZPjCkPb/MIMI+
lpc_rms=-40.76
sample=Trumpet_Marcato_Quarter_MF_C4.opus
tune=+12
</region>

<region>
hikey=C#5
hivel=127
lokey=C5
lovel=0
lpc=A16+QYnjr8LboCBDHbdLw8lxVUPuTkXDMD4gQ5Cx4sLo5JdCHoVbwsOhLUJurBXCjNEGQgkR18HdHItBCI7WwMOlcMBRgDtBlk91we1TgEG/d4LB+31qQcasCMGoORVA
lpc_rms=-31.79
pitch_keycenter=C5
sample=Trumpet_Marcato_Quarter_MF_C5.opus
tune=+1
</region>

<region>
hikey=F6
hivel=127
lokey=C6
lovel=0
lpc=uMEpQqhvlcJ4d6NCG+WDwsJgXkIEMQvCiSz9QXSAp8E14MZB/BqEwa6qnkGGHi/BNxRpQZApr8BaywtBm4Zyv6O1yUDLPb0/xqc9PxnqL0FpUCbB8vusQVl6BMJA2LVB
lpc_rms=-27.72
pitch_keycenter=C6
sample=Trumpet_Marcato_Quarter_MF_C6.opus
tune=-28
</region>

<region>
hikey=D#4
hivel=127
lokey=D4
lovel=0
lpc=hsspQh/pIsOvo5BDYyygwx6TgEOAWCHDnTSiQiRbE8K2o69B0pOSwfUBo0H978rBXhjcQca1vME5QWZBxdw9vy83N8ERyohBimZ4wWk97ED1DIdA/QccwcaLy0CMI8S/
lpc_rms=-38.29
pitch_keycenter=D4
sample=Trumpet_Marcato_Quarter_MF_D4.opus
tune=+7
</region>

<region>
hikey=D#5
hivel=127
lokey=D5
lovel=0
lpc=J5msQXe/lcJKmf5CveITw3m+DUONIvXCyJvGQm9oncKLnoRCHQ91wiAhakJg9lzCBA1UQtDtUsLMq09CQmM9wmoCIkIcPATCnJrMQUj6g8HZpdtADBqaP9zFesCRc/g/
lpc_rms=-31.88
offset=67
pitch_keycenter=D5
sample=Trumpet_Marcato_Quarter_MF_D5.opus
tune=-11
</region>

<region>
hikey=F4
hivel=127
lokey=E4
lovel=0
lpc=ZjITQoH3DsPYX4BD02qQwzeuc0MecTLD9ZH0Qgj5m8LQ6StC/QCHwbRWDUFWkZTBCCnNQX6EbMHry53A2SeHQUuGYsHIUElAQA6nQG/p6sBGmshAs71twNZFqj/kFYq+
lpc_rms=-38.02
pitch_keycenter=E4
sample=Trumpet_Marcato_Quarter_MF_E4.opus
tune=+11
</region>

<region>
hikey=F5
hivel=127
lokey=E5
lovel=0
lpc=m/3EQR1hp8IH8gtDqzQew7icEkP+CfPCzDq3QmVMhMIxMl1CcDVfwokGaEI1slzCf31IQmMHNcIZ6hdCShXNwU0AS0GipT4/r4tFwZoImkHpZqnBpdqiQaD/ZMERua5A
lpc_rms=-31.94
pitch_keycenter=E5
sample=Trumpet_Marcato_Quarter_MF_E5.opus
tune=-18
</region>

<region>
hikey=G3
hivel=127
lokey=F#3
lovel=0
lpc=WBIiQp0gFMOF6WlDe0lSw+YxBENOnqPC0kNmQpAKCMJMG2FB39m9wJkvx0ChR7fAFRkBQM5tJL8J9DVAyNgmwDIOkL9M911AAXMlwE5Fvz7pLOo/WpUTwFJRfz9BWwC+
lpc_rms=-42.62
offset=381
pitch_keycenter=F#3
sample=Trumpet_Marcato_Quarter_MF_F#3.opus
tune=+17
</region>

<region>
hikey=G4
hivel=127
lokey=F#4
lovel=0
lpc=DCwOQn+iB8Nii3dDu72Twyh1h0NhJk7Dfq8BQ3i9e8IgG6pBfYsGwO2+CMCWe5PAZhGBQRfUqMHD1o1BZT5Awepi7ED3kUjA4frlP5bzIMBdaSY/H4WOQLMHu8DUMyBA
lpc_rms=-35.97
pitch_keycenter=F#4
sample=Trumpet_Marcato_Quarter_MF_F#4.opus
tune=-7
</region>

<region>
hikey=G5
hivel=127
lokey=F#5
lovel=0
lpc=ZCHdQbxnmcI/R+hC3hcAw88R+UJm8drCNw6zQvQdfcLCKSJCcWfDwbKedEFCidDAd+SRQOJZscDDzwxBUNrGwHckUMDKRJ1BkUj8wdPtGkKR/hHCbkzxQY4eosE3qx5B
lpc_rms=-28.25
offset=169
pitch_keycenter=F#5
sample=Trumpet_Marcato_Quarter_MF_F#5.opus
tune=-30
</region>

<region>
hikey=A3
hivel=127
lokey=G#3
lovel=0
lpc=uMBLQrGBOsMN1pBDlcZ8w+rsF0OOja/C43hsQst6FsIBrplBzZYkwd/8QkG1FXfBkyY0Qactm8CT+01AZdydv9UmX8AX76RAVlJAwCKrtz4hQB+/vjd9QJgIlcBZmuI/
lpc_rms=-41.51
pitch_keycenter=G#3
sample=Trumpet_Marcato_Quarter_MF_G#3.opus
tune=+3
</region>

<region>
hikey=A4
hivel=127
lokey=G#4
lovel=0
lpc=J8MqQhnGJsNM6JdDjAyxwzr7nEMi3G3DvnYiQyMgycK2Rm9CizAdwq1q2UGQGorBAXtMQbKfY8EogJBB7TmYwQsKVUFH8f+/QmgPwSCmbkFI4W/BsHNKQWqsCMGaVzdA
lpc_rms=-32.39
pitch_keycenter=G#4
sample=Trumpet_Marcato_Quarter_MF_G#4.opus
tune=-16
</region>

<region>
hikey=A5
hivel=127
lokey=G#5
lovel=0
lpc=he0WQiEkycJBMhVDTtgZw18qB0ONQc7CBAOWQlf9ScLgLxNCcN3Pwcxf1EGan9DBqvCrQWDrxMD2uUXAu/0ZQfCKOMGL13BBxnTIwLxYu8CVLZlBuZ6swV/Kj0HGw47A
lpc_rms=-33.91
pitch_keycenter=G#5
sample=Trumpet_Marcato_Quarter_MF_G#5.opus
tune=-38
</region>
</group>

<group>
group_label=Group_87-127
lpc_hicc1=127
lpc_locc1=87

<region>
hikey=B3
hivel=127
lokey=A#3
lovel=0
lpc=yjkAQsyP9cJRBFtDl3p3w/GxUkMjJxfD12G7Qk21RcIjB85BbnaZwc8woEEql6LBe99uQfbDi8CulojA8UnjQBI92sAnSq9A1llQwCYE6T4mBCtADhuKwOCRQEDb51S/
lpc_rms=-38.03
pitch_keycenter=A#3
sample=Trumpet_Marcato_Quarter_FF_A#3.opus
tune=+17
</region>

<region>
hikey=B4
hivel=127
lokey=A#4
lovel=0
lpc=lGVkQYsXR8K5orRCN5vrwhWxAEN47PfCjtrVQmQxrsIdeJVCVH2IwgrgfUJNUmjCiJREQk8TFsIY/91Bl72nwX+3akEU2OfAlgPSP6wz0T+vR07AGqgxQHevur8Mxhc/
lpc_rms=-32.23
pitch_keycenter=A#4
sample=Trumpet_Marcato_Quarter_FF_A#4.opus
</region>

<region>
hikey=B5
hivel=127
lokey=A#5
lovel=0
lpc=Hhc3QdRKXsFrQJlBCPBTwfdQUkFqM6rA9HbKQNWF4L/xl8FAXI00wEs+10BImTDAXJa/QEAdT7+aK0RAMHj6Py+8ZD+cRkRAaA7kP++MD77Gjr1AizY2wOJUs0CtAkw/
lpc_rms=-30.32
pitch_keycenter=A#5
sample=Trumpet_Marcato_Quarter_FF_A#5.opus
tune=-21
</region>

<region>
hikey=C#4
hivel=127
lokey=C4
lovel=0
lpc=XFtpQRM/PcLaEJdCbeeqwiP2pkK8d5bC+2h+QjMkTcKTCiNCYe8AwoTux0EnMJ3BGjCHQUljY8FwLh1BjTmdwAP/Tz/zwRZAVfGGwKB3e0B3B/G/5o6IPrw5pj2uPp29
lpc_rms=-36.10
sample=Trumpet_Marcato_Quarter_FF_C4.opus
tune=+14
</region>

<region>
hikey=C#5
hivel=127
lokey=C5
lovel=0
lpc=a3k/QVNTC8KY1EtC/v9WwhCDRUKeaCPCDl/wQR/Uo8F1c29BjqU2wSGbCEGbKuPA//vNQOBPgcAr/w1AQt5Dv5GcoL+PFzdAyIyGwL8y0UAiBwrB4Gj5QPhylcAgJL4/
lpc_rms=-29.61
offset=57
pitch_keycenter=C5
sample=Trumpet_Marcato_Quarter_FF_C5.opus
tune=-9
</region>

<region>
hikey=F6
hivel=127
lokey=C6
lovel=0
lpc=8wUXQijhPsJJTCVCXu7rwZlu20HJEo/BDfGMQSwcFsF/cidBsIR3wJaPxECC/oi9RnwqQBHUVEBZXRi/ztjPQG59g8C90y1BVKwiwcaxmkGH86rBAKcHQj7WNcJsEKtB
lpc_rms=-26.60
pitch_keycenter=C6
sample=Trumpet_Marcato_Quarter_FF_C6.opus
tune=-15
</region>

<region>
hikey=D#4
hivel=127
lokey=D4
lovel=0
lpc=rmHrQYFu3sIxxEZDWplnwx+uUUNV8CHDyM3ZQluCgMIpBRJCT37OwZ+E00Guw+/BFj3mQb9MnsH8MrNAnWPWQO1QIME2Ic9AGIDrv+CR8r+xEnFA73MgwENV3D7QQyM+
lpc_rms=-39.02
pitch_keycenter=D4
sample=Trumpet_Marcato_Quarter_FF_D4.opus
tune=-15
</region>

<region>
hikey=D#5
hivel=127
lokey=D5
lovel=0
lpc=yOT4QEirpME7XtdBsDTMwaHftUF1V5fBg8liQSRuI8G1nwBBti65wD7UUUAf15e/TQI3PmO20z7ZDIi/g3fOP6+Vl79Okm8+RnqCP03No7+xUK8+PROXPxTtxL/SEDY/
lpc_rms=-28.41
pitch_keycenter=D5
sample=Trumpet_Marcato_Quarter_FF_D5.opus
tune=-14
</region>

<region>
hikey=F4
hivel=127
lokey=E4
lovel=0
lpc=Th4VQo0WEcPUH4VDj2Odw5oxjUNIe1LD4ywFQ9C/lMID+0BCJaU6wmHrU0LzlWnCpL1lQpd1O8IWLApCvbnewV37s0HKUlfBHiHpQJgxEcH3rTtBJE7fwOiZKT+USj4/
lpc_rms=-33.25
pitch_keycenter=E4
sample=Trumpet_Marcato_Quarter_FF_E4.opus
tune=-7
</region>

<region>
hikey=F5
hivel=127
lokey=E5
lovel=0
lpc=6ahYQSOHH8IslG9CtNl/wgQQZ0LmmzPCk17xQaC6m8HrNohBIM6FwW6PVkFF4fHAMSBiQAnNI8DSBp9AnfH5wCD7BEFQaHPA23BYwNOVHUEqG0rB+DlGQZe+EcGCz3ZA
lpc_rms=-26.31
pitch_keycenter=E5
sample=Trumpet_Marcato_Quarter_FF_E5.opus
tune=-7
</region>

<region>
hikey=G3
hivel=127
lokey=F#3
lovel=0
lpc=DozjQVViy8IbuShDBp4zw93mE0MiXtPCr7CJQjnOKcI2ieRBNQ3EwZBIvEGF5Z7B7MNcQVXY2cBJfpG+jlCqQNVL5MBVyMxAmenpv3WHnsApmd9A41BDwKLNnL4gAt4+
lpc_rms=-46.04
pitch_keycenter=F#3
sample=Trumpet_Marcato_Quarter_FF_F#3.opus
tune=+39
</region>

<region>
hikey=G4
hivel=127
lokey=F#4
lovel=0
lpc=Z3+SQbD2f8IEW95CP5wFw7Q5BUPFNPDCI5DHQrp+msIoWm1CbWk+wo/sI0KKkBDCOPrwQadVpcFpoxpB7DlJv4tZecAjM4hAwuK2v1ytdb9gBGQ/VHMFPygWcr+YBtw+
lpc_rms=-35.13
offset=49
pitch_keycenter=F#4
sample=Trumpet_Marcato_Quarter_FF_F#4.opus
tune=-2
</region>

<region>
hikey=G5
hivel=127
lokey=F#5
lovel=0
lpc=5MT2QJOFk8EdhL9BRiW0wfoqlkEX1lTB0SsIQQlKo8Dww4FAmMcbwHQC1z8DPcy/kBvTP6omAD8JZEPAtsyeQFcrgMARNEhAK6RqwF33wUAGZOzAie/jQOK5lcDeoBFA
lpc_rms=-30.43
pitch_keycenter=F#5
sample=Trumpet_Marcato_Quarter_FF_F#5.opus
tune=-2
</region>

<region>
hikey=A3
hivel=127
lokey=G#3
lovel=0
lpc=s4u5QasaqcKjLxVDsUUzw8XNLkPmPRbD5G7rQrFyrMICyndCawA9whBDHkI0NQnC367nQRUduMGiDY1BYCdlwY+dP0G2IfLAY1vVPyHRUkAb49jAjdnkQCkofcDiBGE/
lpc_rms=-34.70
offset=251
pitch_keycenter=G#3
sample=Trumpet_Marcato_Quarter_FF_G#3.opus
tune=+11
</region>

<region>
hikey=A4
hivel=127
lokey=G#4
lovel=0
lpc=nUbpQVTG2sLvL0ND1upmw7xJWEM8qS3DH4n2QsiRqsK9WYdCBFJxwm+US0JW0A/C/KmRQeozQMAynMC/M2d0wC664UBR2/u/NKfSwChDYEHU6obBM5JUQbSny8C5S7c/
lpc_rms=-31.34
pitch_keycenter=G#4
sample=Trumpet_Marcato_Quarter_FF_G#4.opus
tune=-12
</region>

<region>
hikey=A5
hivel=127
lokey=G#5
lovel=0
lpc=EwuWQW2jAMJbehNCPx7uwbTZ7kGhocHBwjWUQb59D8FdqxlBNvSjwEZID0C9OEtASPPSP7uppz1fnaS/wC2nQCyZkb8iv6hALa8BwVdESEHeSgLBlq46QZzWPsF3HytB
lpc_rms=-25.05
pitch_keycenter=G#5
sample=Trumpet_Marcato_Quarter_FF_G#5.opus
tune=-13
</region>
</group>

<group>
group_label=RR1
seq_length=2
seq_position=1

<region>
hivel=127
key=A#3
lovel=87
offset=355
sample=Trumpet_staccato_FF_A#3_RR1.opus
tune=+21
</region>

<region>
hivel=127
key=A#4
lovel=87
offset=117
sample=Trumpet_staccato_FF_A#4_RR1.opus
tune=-4
</region>

<region>
hivel=127
key=A#5
lovel=87
sample=Trumpet_staccato_FF_A#5_RR1.opus
tune=-57
</region>

<region>
hivel=127
key=A3
lovel=87
offset=827
sample=Trumpet_staccato_FF_A3_RR1.opus
tune=+29
</region>

<region>
hivel=127
key=A4
lovel=87
offset=81
sample=Trumpet_staccato_FF_A4_RR1.opus
tune=-33
</region>

<region>
hivel=127
key=A5
lovel=87
offset=477
sample=Trumpet_staccato_FF_A5_RR1.opus
tune=-27
</region>

<region>
hivel=127
key=B3
lovel=87
offset=516
sample=Trumpet_staccato_FF_B3_RR1.opus
tune=+16
</region>

<region>
hivel=127
key=B4
lovel=87
offset=145
sample=Trumpet_staccato_FF_B4_RR1.opus
tune=-10
</region>

<region>
hivel=127
key=B5
lovel=87
offset=284
sample=Trumpet_staccato_FF_B5_RR1.opus
tune=-22
</region>

<region>
hivel=127
key=C#4
lovel=87
sample=Trumpet_staccato_FF_C#4_RR1.opus
tune=+10
</region>

<region>
hivel=127
key=C#5
lovel=87
offset=69
sample=Trumpet_staccato_FF_C#5_RR1.opus
tune=-3
</region>

<region>
hikey=C4
hivel=127
lokey=C4
lovel=87
offset=60
sample=Trumpet_staccato_FF_C4_RR1.opus
tune=+2
</region>

<region>
hivel=127
key=C5
lovel=87
offset=583
sample=Trumpet_staccato_FF_C5_RR1.opus
tune=-3
</region>

<region>
hikey=F6
hivel=127
lokey=C6
lovel=87
pitch_keycenter=C6
sample=Trumpet_staccato_FF_C6_RR1.opus
tune=-62
</region>

<region>
hivel=127
key=D#4
lovel=87
offset=630
sample=Trumpet_staccato_FF_D#4_RR1.opus
tune=+1
</region>

<region>
hivel=127
key=D#5
lovel=87
offset=159
sample=Trumpet_staccato_FF_D#5_RR1.opus
tune=-17
</region>

<region>
hivel=127
key=D4
lovel=87
offset=25
sample=Trumpet_staccato_FF_D4_RR1.opus
tune=-5
</region>

<region>
hivel=127
key=D5
lovel=87
offset=502
sample=Trumpet_staccato_FF_D5_RR1.opus
tune=-8
</region>

<region>
hivel=127
key=E4
lovel=87
sample=Trumpet_staccato_FF_E4_RR1.opus
tune=+3
</region>

<region>
hivel=127
key=E5
lovel=87
offset=124
sample=Trumpet_staccato_FF_E5_RR1.opus
tune=-6
</region>

<region>
hivel=127
key=F#3
lovel=87
offset=68
sample=Trumpet_staccato_FF_F#3_RR1.opus
tune=+39
</region>

<region>
hivel=127
key=F#4
lovel=87
offset=140
sample=Trumpet_staccato_FF_F#4_RR1.opus
tune=-4
</region>

<region>
hivel=127
key=F#5
lovel=87
offset=524
sample=Trumpet_staccato_FF_F#5_RR1.opus
tune=-10
</region>

<region>
hivel=127
key=F4
lovel=87
offset=85
sample=Trumpet_staccato_FF_F4_RR1.opus
tune=-5
</region>

<region>
hivel=127
key=F5
lovel=87
offset=24
sample=Trumpet_staccato_FF_F5_RR1.opus
tune=-21
</region>

<region>
hivel=127
key=G#3
lovel=87
offset=1904
sample=Trumpet_staccato_FF_G#3_RR1.opus
tune=+26
</region>

<region>
hivel=127
key=G#4
lovel=87
sample=Trumpet_staccato_FF_G#4_RR1.opus
tune=-15
</region>

<region>
hivel=127
key=G#5
lovel=87
sample=Trumpet_staccato_FF_G#5_RR1.opus
tune=-13
</region>

<region>
hivel=127
key=G3
lovel=87
sample=Trumpet_staccato_FF_G3_RR1.opus
tune=+35
</region>

<region>
hivel=127
key=G4
lovel=87
sample=Trumpet_staccato_FF_G4_RR1.opus
tune=-9
</region>

<region>
hivel=127
key=G5
lovel=87
sample=Trumpet_staccato_FF_G5_RR1.opus
tune=-9
</region>

<region>
hivel=86
key=A#3
lovel=43
offset=52
sample=Trumpet_staccato_MF_A#3_RR1.opus
tune=-2
</region>

<region>
hivel=86
key=A#4
lovel=43
sample=Trumpet_staccato_MF_A#4_RR1.opus
tune=-34
</region>

<region>
hivel=86
key=A#5
lovel=43
offset=52
sample=Trumpet_staccato_MF_A#5_RR1.opus
tune=-41
</region>

<region>
hivel=86
key=A3
lovel=43
sample=Trumpet_staccato_MF_A3_RR1.opus
tune=-3
</region>

<region>
hivel=86
key=A4
lovel=43
sample=Trumpet_staccato_MF_A4_RR1.opus
tune=-20
</region>

<region>
hivel=86
key=A5
lovel=43
sample=Trumpet_staccato_MF_A5_RR1.opus
tune=-14
</region>

<region>
hivel=86
key=B3
lovel=43
sample=Trumpet_staccato_MF_B3_RR1.opus
tune=+5
</region>

<region>
hivel=86
key=B4
lovel=43
sample=Trumpet_staccato_MF_B4_RR1.opus
tune=-12
</region>

<region>
hivel=86
key=B5
lovel=43
offset=32
sample=Trumpet_staccato_MF_B5_RR1.opus
tune=-36
</region>

<region>
hivel=86
key=C#4
lovel=43
offset=1172
sample=Trumpet_staccato_MF_C#4_RR1.opus
tune=+10
</region>

<region>
hivel=86
key=C#5
lovel=43
offset=144
sample=Trumpet_staccato_MF_C#5_RR1.opus
tune=+10
</region>

<region>
hikey=C4
hivel=86
lokey=C4
lovel=43
offset=1206
sample=Trumpet_staccato_MF_C4_RR1.opus
tune=+15
</region>

<region>
hivel=86
key=C5
lovel=43
offset=169
sample=Trumpet_staccato_MF_C5_RR1.opus
tune=+2
</region>

<region>
hikey=F6
hivel=86
lokey=C6
lovel=43
offset=38
pitch_keycenter=C6
sample=Trumpet_staccato_MF_C6_RR1.opus
tune=-19
</region>

<region>
hivel=86
key=D#4
lovel=43
offset=119
sample=Trumpet_staccato_MF_D#4_RR1.opus
tune=-10
</region>

<region>
hivel=86
key=D#5
lovel=43
offset=315
sample=Trumpet_staccato_MF_D#5_RR1.opus
tune=-8
</region>

<region>
hivel=86
key=D4
lovel=43
offset=181
sample=Trumpet_staccato_MF_D4_RR1.opus
tune=-11
</region>

<region>
hivel=86
key=D5
lovel=43
sample=Trumpet_staccato_MF_D5_RR1.opus
tune=-8
</region>

<region>
hivel=86
key=E4
lovel=43
offset=134
sample=Trumpet_staccato_MF_E4_RR1.opus
tune=-8
</region>

<region>
hivel=86
key=E5
lovel=43
offset=131
sample=Trumpet_staccato_MF_E5_RR1.opus
tune=-10
</region>

<region>
hivel=86
key=F#3
lovel=43
offset=1120
sample=Trumpet_staccato_MF_F#3_RR1.opus
tune=+19
</region>

<region>
hivel=86
key=F#4
lovel=43
offset=599
sample=Trumpet_staccato_MF_F#4_RR1.opus
tune=-14
</region>

<region>
hivel=86
key=F#5
lovel=43
offset=238
sample=Trumpet_staccato_MF_F#5_RR1.opus
tune=-18
</region>

<region>
hivel=86
key=F4
lovel=43
sample=Trumpet_staccato_MF_F4_RR1.opus
tune=-31
</region>

<region>
hivel=86
key=F5
lovel=43
offset=215
sample=Trumpet_staccato_MF_F5_RR1.opus
tune=-27
</region>

<region>
hivel=86
key=G#3
lovel=43
sample=Trumpet_staccato_MF_G#3_RR1.opus
tune=-14
</region>

<region>
hivel=86
key=G#4
lovel=43
sample=Trumpet_staccato_MF_G#4_RR1.opus
tune=-30
</region>

<region>
hivel=86
key=G#5
lovel=43
sample=Trumpet_staccato_MF_G#5_RR1.opus
tune=-37
</region>

<region>
hivel=86
key=G3
lovel=43
offset=25
sample=Trumpet_staccato_MF_G3_RR1.opus
tune=+10
</region>

<region>
hivel=86
key=G4
lovel=43
sample=Trumpet_staccato_MF_G4_RR1.opus
tune=-30
</region>

<region>
hivel=86
key=G5
lovel=43
offset=551
sample=Trumpet_staccato_MF_G5_RR1.opus
tune=-14
</region>

<region>
hivel=42
key=A#3
lovel=0
sample=Trumpet_staccato_PP_A#3_RR1.opus
tune=+6
</region>

<region>
hivel=42
key=A#4
lovel=0
offset=159
sample=Trumpet_staccato_PP_A#4_RR1.opus
tune=-36
</region>

<region>
hivel=42
key=A#5
lovel=0
sample=Trumpet_staccato_PP_A#5_RR1.opus
tune=-51
</region>

<region>
hivel=42
key=A3
lovel=0
offset=1914
sample=Trumpet_staccato_PP_A3_RR1.opus
tune=+2
</region>

<region>
hivel=42
key=A4
lovel=0
offset=295
sample=Trumpet_staccato_PP_A4_RR1.opus
tune=-25
</region>

<region>
hivel=42
key=A5
lovel=0
sample=Trumpet_staccato_PP_A5_RR1.opus
tune=-30
</region>

<region>
hivel=42
key=B3
lovel=0
offset=261
sample=Trumpet_staccato_PP_B3_RR1.opus
tune=-10
</region>

<region>
hivel=42
key=B4
lovel=0
offset=579
sample=Trumpet_staccato_PP_B4_RR1.opus
tune=-22
</region>

<region>
hivel=42
key=B5
lovel=0
offset=324
sample=Trumpet_staccato_PP_B5_RR1.opus
tune=-37
</region>

<region>
hivel=42
key=C#4
lovel=0
offset=1713
sample=Trumpet_staccato_PP_C#4_RR1.opus
tune=+3
</region>

<region>
hivel=42
key=C#5
lovel=0
offset=4956
sample=Trumpet_staccato_PP_C#5_RR1.opus
tune=-13
</region>

<region>
hikey=C4
hivel=42
lokey=C4
lovel=0
offset=470
sample=Trumpet_staccato_PP_C4_RR1.opus
tune=+21
</region>

<region>
hivel=42
key=C5
lovel=0
offset=158
sample=Trumpet_staccato_PP_C5_RR1.opus
tune=-7
</region>

<region>
hikey=F6
hivel=42
lokey=C6
lovel=0
pitch_keycenter=C6
sample=Trumpet_staccato_PP_C6_RR1.opus
tune=-32
</region>

<region>
hivel=42
key=D#4
lovel=0
offset=2456
sample=Trumpet_staccato_PP_D#4_RR1.opus
tune=-12
</region>

<region>
hivel=42
key=D#5
lovel=0
offset=529
sample=Trumpet_staccato_PP_D#5_RR1.opus
tune=-19
</region>

<region>
hivel=42
key=D4
lovel=0
offset=2425
sample=Trumpet_staccato_PP_D4_RR1.opus
tune=-24
</region>

<region>
hivel=42
key=D5
lovel=0
offset=2756
sample=Trumpet_staccato_PP_D5_RR1.opus
tune=-13
</region>

<region>
hivel=42
key=E4
lovel=0
offset=1356
sample=Trumpet_staccato_PP_E4_RR1.opus
tune=-11
</region>

<region>
hivel=42
key=E5
lovel=0
offset=207
sample=Trumpet_staccato_PP_E5_RR1.opus
tune=-23
</region>

<region>
hivel=42
key=F#3
lovel=0
offset=462
sample=Trumpet_staccato_PP_F#3_RR1.opus
tune=+27
</region>

<region>
hivel=42
key=F#4
lovel=0
offset=481
sample=Trumpet_staccato_PP_F#4_RR1.opus
tune=-16
</region>

<region>
hivel=42
key=F#5
lovel=0
offset=510
sample=Trumpet_staccato_PP_F#5_RR1.opus
tune=-29
</region>

<region>
hivel=42
key=F4
lovel=0
offset=99
sample=Trumpet_staccato_PP_F4_RR1.opus
tune=-30
</region>

<region>
hivel=42
key=F5
lovel=0
sample=Trumpet_staccato_PP_F5_RR1.opus
tune=-52
</region>

<region>
hivel=42
key=G#3
lovel=0
offset=1728
sample=Trumpet_staccato_PP_G#3_RR1.opus
tune=+14
</region>

<region>
hivel=42
key=G#4
lovel=0
offset=103
sample=Trumpet_staccato_PP_G#4_RR1.opus
tune=-25
</region>

<region>
hivel=42
key=G#5
lovel=0
sample=Trumpet_staccato_PP_G#5_RR1.opus
tune=-19
</region>

<region>
hivel=42
key=G3
lovel=0
sample=Trumpet_staccato_PP_G3_RR1.opus
tune=+3
</region>

<region>
hivel=42
key=G4
lovel=0
sample=Trumpet_staccato_PP_G4_RR1.opus
tune=-39
</region>

<region>
hivel=42
key=G5
lovel=0
sample=Trumpet_staccato_PP_G5_RR1.opus
tune=-22
</region>
</group>

<group>
group_label=RR2
seq_length=2
seq_position=2

<region>
hivel=127
key=A#3
lovel=87
offset=531
sample=Trumpet_staccato_FF_A#3_RR2.opus
tune=+33
</region>

<region>
hivel=127
key=A#4
lovel=87
offset=381
sample=Trumpet_staccato_FF_A#4_RR2.opus
tune=-14
</region>

<region>
hivel=127
key=A#5
lovel=87
offset=36
sample=Trumpet_staccato_FF_A#5_RR2.opus
tune=-55
</region>

<region>
hivel=127
key=A3
lovel=87
sample=Trumpet_staccato_FF_A3_RR2.opus
tune=+27
</region>

<region>
hivel=127
key=A4
lovel=87
offset=131
sample=Trumpet_staccato_FF_A4_RR2.opus
tune=-33
</region>

<region>
hivel=127
key=A5
lovel=87
sample=Trumpet_staccato_FF_A5_RR2.opus
tune=-27
</region>

<region>
hivel=127
key=B3
lovel=87
offset=516
sample=Trumpet_staccato_FF_B3_RR2.opus
tune=+17
</region>

<region>
hivel=127
key=B4
lovel=87
offset=237
sample=Trumpet_staccato_FF_B4_RR2.opus
tune=-11
</region>

<region>
hivel=127
key=B5
lovel=87
offset=57
sample=Trumpet_staccato_FF_B5_RR2.opus
tune=-25
</region>

<region>
hivel=127
key=C#4
lovel=87
sample=Trumpet_staccato_FF_C#4_RR2.opus
tune=+15
</region>

<region>
hivel=127
key=C#5
lovel=87
offset=160
sample=Trumpet_staccato_FF_C#5_RR2.opus
tune=-8
</region>

<region>
hikey=C4
hivel=127
lokey=C4
lovel=87
offset=3272
sample=Trumpet_staccato_FF_C4_RR2.opus
tune=-3
</region>

<region>
hivel=127
key=C5
lovel=87
offset=882
sample=Trumpet_staccato_FF_C5_RR2.opus
tune=-2
</region>

<region>
hikey=F6
hivel=127
lokey=C6
lovel=87
pitch_keycenter=C6
sample=Trumpet_staccato_FF_C6_RR2.opus
tune=-27
</region>

<region>
hivel=127
key=D#4
lovel=87
offset=137
sample=Trumpet_staccato_FF_D#4_RR2.opus
tune=+5
</region>

<region>
hivel=127
key=D#5
lovel=87
offset=254
sample=Trumpet_staccato_FF_D#5_RR2.opus
tune=-18
</region>

<region>
hivel=127
key=D4
lovel=87
offset=24
sample=Trumpet_staccato_FF_D4_RR2.opus
tune=-2
</region>

<region>
hivel=127
key=D5
lovel=87
offset=93
sample=Trumpet_staccato_FF_D5_RR2.opus
tune=-8
</region>

<region>
hivel=127
key=E4
lovel=87
sample=Trumpet_staccato_FF_E4_RR2.opus
tune=+12
</region>

<region>
hivel=127
key=E5
lovel=87
offset=61
sample=Trumpet_staccato_FF_E5_RR2.opus
tune=-11
</region>

<region>
hivel=127
key=F#3
lovel=87
offset=75
sample=Trumpet_staccato_FF_F#3_RR2.opus
tune=+32
</region>

<region>
hivel=127
key=F#4
lovel=87
offset=194
sample=Trumpet_staccato_FF_F#4_RR2.opus
tune=-9
</region>

<region>
hivel=127
key=F#5
lovel=87
offset=114
sample=Trumpet_staccato_FF_F#5_RR2.opus
tune=-16
</region>

<region>
hivel=127
key=F4
lovel=87
offset=81
sample=Trumpet_staccato_FF_F4_RR2.opus
tune=-5
</region>

<region>
hivel=127
key=F5
lovel=87
sample=Trumpet_staccato_FF_F5_RR2.opus
tune=-28
</region>

<region>
hivel=127
key=G#3
lovel=87
offset=848
sample=Trumpet_staccato_FF_G#3_RR2.opus
tune=+27
</region>

<region>
hivel=127
key=G#4
lovel=87
sample=Trumpet_staccato_FF_G#4_RR2.opus
tune=-15
</region>

<region>
hivel=127
key=G#5
lovel=87
sample=Trumpet_staccato_FF_G#5_RR2.opus
tune=-19
</region>

<region>
hivel=127
key=G3
lovel=87
sample=Trumpet_staccato_FF_G3_RR2.opus
tune=+27
</region>

<region>
hivel=127
key=G4
lovel=87
offset=196
sample=Trumpet_staccato_FF_G4_RR2.opus
tune=-8
</region>

<region>
hivel=127
key=G5
lovel=87
offset=83
sample=Trumpet_staccato_FF_G5_RR2.opus
tune=-14
</region>

<region>
hivel=86
key=A#3
lovel=43
offset=60
sample=Trumpet_staccato_MF_A#3_RR2.opus
tune=+1
</region>

<region>
hivel=86
key=A#4
lovel=43
sample=Trumpet_staccato_MF_A#4_RR2.opus
tune=-24
</region>

<region>
hivel=86
key=A#5
lovel=43
sample=Trumpet_staccato_MF_A#5_RR2.opus
tune=-45
</region>

<region>
hivel=86
key=A3
lovel=43
sample=Trumpet_staccato_MF_A3_RR2.opus
tune=-8
</region>

<region>
hivel=86
key=A4
lovel=43
sample=Trumpet_staccato_MF_A4_RR2.opus
tune=-26
</region>

<region>
hivel=86
key=A5
lovel=43
sample=Trumpet_staccato_MF_A5_RR2.opus
tune=-20
</region>

<region>
hivel=86
key=B3
lovel=43
offset=39
sample=Trumpet_staccato_MF_B3_RR2.opus
tune=+3
</region>

<region>
hivel=86
key=B4
lovel=43
sample=Trumpet_staccato_MF_B4_RR2.opus
tune=-10
</region>

<region>
hivel=86
key=B5
lovel=43
sample=Trumpet_staccato_MF_B5_RR2.opus
tune=-36
</region>

<region>
hivel=86
key=C#4
lovel=43
sample=Trumpet_staccato_MF_C#4_RR2.opus
tune=+4
</region>

<region>
hivel=86
key=C#5
lovel=43
offset=156
sample=Trumpet_staccato_MF_C#5_RR2.opus
tune=+5
</region>

<region>
hikey=C4
hivel=86
lokey=C4
lovel=43
offset=844
sample=Trumpet_staccato_MF_C4_RR2.opus
tune=+11
</region>

<region>
hivel=86
key=C5
lovel=43
offset=421
sample=Trumpet_staccato_MF_C5_RR2.opus
tune=+8
</region>

<region>
hikey=F6
hivel=86
lokey=C6
lovel=43
pitch_keycenter=C6
sample=Trumpet_staccato_MF_C6_RR2.opus
tune=-24
</region>

<region>
hivel=86
key=D#4
lovel=43
sample=Trumpet_staccato_MF_D#4_RR2.opus
tune=-10
</region>

<region>
hivel=86
key=D#5
lovel=43
offset=245
sample=Trumpet_staccato_MF_D#5_RR2.opus
tune=-14
</region>

<region>
hivel=86
key=D4
lovel=43
offset=184
sample=Trumpet_staccato_MF_D4_RR2.opus
tune=-12
</region>

<region>
hivel=86
key=D5
lovel=43
offset=84
sample=Trumpet_staccato_MF_D5_RR2.opus
tune=-16
</region>

<region>
hivel=86
key=E4
lovel=43
sample=Trumpet_staccato_MF_E4_RR2.opus
tune=-13
</region>

<region>
hivel=86
key=E5
lovel=43
offset=172
sample=Trumpet_staccato_MF_E5_RR2.opus
tune=-20
</region>

<region>
hivel=86
key=F#3
lovel=43
offset=4408
sample=Trumpet_staccato_MF_F#3_RR2.opus
tune=+13
</region>

<region>
hivel=86
key=F#4
lovel=43
offset=281
sample=Trumpet_staccato_MF_F#4_RR2.opus
tune=-14
</region>

<region>
hivel=86
key=F#5
lovel=43
offset=2591
sample=Trumpet_staccato_MF_F#5_RR2.opus
tune=-20
</region>

<region>
hivel=86
key=F4
lovel=43
offset=210
sample=Trumpet_staccato_MF_F4_RR2.opus
tune=-28
</region>

<region>
hivel=86
key=F5
lovel=43
offset=66
sample=Trumpet_staccato_MF_F5_RR2.opus
tune=-36
</region>

<region>
hivel=86
key=G#3
lovel=43
offset=2109
sample=Trumpet_staccato_MF_G#3_RR2.opus
tune=-11
</region>

<region>
hivel=86
key=G#4
lovel=43
sample=Trumpet_staccato_MF_G#4_RR2.opus
tune=-29
</region>

<region>
hivel=86
key=G#5
lovel=43
offset=511
sample=Trumpet_staccato_MF_G#5_RR2.opus
tune=-38
</region>

<region>
hivel=86
key=G3
lovel=43
offset=2190
sample=Trumpet_staccato_MF_G3_RR2.opus
tune=-2
</region>

<region>
hivel=86
key=G4
lovel=43
sample=Trumpet_staccato_MF_G4_RR2.opus
tune=-28
</region>

<region>
hivel=86
key=G5
lovel=43
offset=317
sample=Trumpet_staccato_MF_G5_RR2.opus
tune=-28
</region>

<region>
hivel=42
key=A#3
lovel=0
offset=1370
sample=Trumpet_staccato_PP_A#3_RR2.opus
tune=+2
</region>

<region>
hivel=42
key=A#4
lovel=0
offset=3729
sample=Trumpet_staccato_PP_A#4_RR2.opus
tune=-42
</region>

<region>
hivel=42
key=A#5
lovel=0
sample=Trumpet_staccato_PP_A#5_RR2.opus
tune=-43
</region>

<region>
hivel=42
key=A3
lovel=0
offset=2214
sample=Trumpet_staccato_PP_A3_RR2.opus
tune=+12
</region>

<region>
hivel=42
key=A4
lovel=0
offset=4825
sample=Trumpet_staccato_PP_A4_RR2.opus
tune=-31
</region>

<region>
hivel=42
key=A5
lovel=0
offset=505
sample=Trumpet_staccato_PP_A5_RR2.opus
tune=-33
</region>

<region>
hivel=42
key=B3
lovel=0
offset=3850
sample=Trumpet_staccato_PP_B3_RR2.opus
tune=-12
</region>

<region>
hivel=42
key=B4
lovel=0
offset=3544
sample=Trumpet_staccato_PP_B4_RR2.opus
tune=-25
</region>

<region>
hivel=42
key=B5
lovel=0
offset=179
sample=Trumpet_staccato_PP_B5_RR2.opus
tune=-47
</region>

<region>
hivel=42
key=C#4
lovel=0
offset=3064
sample=Trumpet_staccato_PP_C#4_RR2.opus
tune=+3
</region>

<region>
hivel=42
key=C#5
lovel=0
offset=492
sample=Trumpet_staccato_PP_C#5_RR2.opus
tune=-13
</region>

<region>
hikey=C4
hivel=42
lokey=C4
lovel=0
offset=110
sample=Trumpet_staccato_PP_C4_RR2.opus
tune=+29
</region>

<region>
hivel=42
key=C5
lovel=0
offset=693
sample=Trumpet_staccato_PP_C5_RR2.opus
tune=-9
</region>

<region>
hikey=F6
hivel=42
lokey=C6
lovel=0
offset=32
pitch_keycenter=C6
sample=Trumpet_staccato_PP_C6_RR2.opus
tune=-35
</region>

<region>
hivel=42
key=D#4
lovel=0
offset=2226
sample=Trumpet_staccato_PP_D#4_RR2.opus
tune=-12
</region>

<region>
hivel=42
key=D#5
lovel=0
offset=3542
sample=Trumpet_staccato_PP_D#5_RR2.opus
tune=-29
</region>

<region>
hivel=42
key=D4
lovel=0
offset=2626
sample=Trumpet_staccato_PP_D4_RR2.opus
tune=-25
</region>

<region>
hivel=42
key=D5
lovel=0
offset=4724
sample=Trumpet_staccato_PP_D5_RR2.opus
tune=-16
</region>

<region>
hivel=42
key=E4
lovel=0
offset=3491
sample=Trumpet_staccato_PP_E4_RR2.opus
tune=-10
</region>

<region>
hivel=42
key=E5
lovel=0
offset=69
sample=Trumpet_staccato_PP_E5_RR2.opus
tune=-28
</region>

<region>
hivel=42
key=F#3
lovel=0
offset=4033
sample=Trumpet_staccato_PP_F#3_RR2.opus
tune=+13
</region>

<region>
hivel=42
key=F#4
lovel=0
offset=1255
sample=Trumpet_staccato_PP_F#4_RR2.opus
tune=-23
</region>

<region>
hivel=42
key=F#5
lovel=0
offset=98
sample=Trumpet_staccato_PP_F#5_RR2.opus
tune=-34
</region>

<region>
hivel=42
key=F4
lovel=0
sample=Trumpet_staccato_PP_F4_RR2.opus
tune=-29
</region>

<region>
hivel=42
key=F5
lovel=0
offset=257
sample=Trumpet_staccato_PP_F5_RR2.opus
tune=-55
</region>

<region>
hivel=42
key=G#3
lovel=0
offset=3345
sample=Trumpet_staccato_PP_G#3_RR2.opus
</region>

<region>
hivel=42
key=G#4
lovel=0
offset=117
sample=Trumpet_staccato_PP_G#4_RR2.opus
tune=-26
</region>

<region>
hivel=42
key=G#5
lovel=0
offset=780
sample=Trumpet_staccato_PP_G#5_RR2.opus
tune=-19
</region>

<region>
hivel=42
key=G3
lovel=0
offset=769
sample=Trumpet_staccato_PP_G3_RR2.opus
tune=+2
</region>

<region>
hivel=42
key=G4
lovel=0
offset=2140
sample=Trumpet_staccato_PP_G4_RR2.opus
tune=-41
</region>

<region>
hivel=42
key=G5
lovel=0
offset=2791
sample=Trumpet_staccato_PP_G5_RR2.opus
tune=-26
</region>
</group>